<?xml version="1.0" standalone="no"?>
<!DOCTYPE svg PUBLIC "-//W3C//DTD SVG 20010904//EN"
 "http://www.w3.org/TR/2001/REC-SVG-20010904/DTD/svg10.dtd">
<svg version="1.0" xmlns="http://www.w3.org/2000/svg"
 width="100.000000pt" height="100.000000pt" viewBox="0 0 100.000000 100.000000"
 preserveAspectRatio="xMidYMid meet">

<g transform="translate(0.000000,100.000000) scale(0.100000,-0.100000)"
fill="#000000" stroke="none">
<path d="M723 855 c-81 -40 -148 -107 -188 -184 -23 -47 -45 -60 -45 -27 0 28
-71 153 -105 186 l-37 35 36 -53 c28 -41 76 -169 102 -269 2 -7 10 -13 19 -13
10 0 15 10 15 33 0 51 54 152 112 211 31 30 81 66 118 84 36 17 60 32 54 32
-6 0 -43 -16 -81 -35z"/>
<path d="M115 775 c20 -95 105 -199 204 -249 28 -15 51 -30 51 -35 0 -4 -19
-13 -42 -20 -64 -19 -132 -59 -170 -99 l-33 -35 36 27 c44 32 132 69 219 91
96 24 94 23 80 40 -7 8 -26 15 -42 15 -33 0 -131 47 -177 86 -40 33 -89 104
-113 163 -12 29 -17 35 -13 16z"/>
<path d="M801 594 c-51 -32 -123 -59 -219 -84 -54 -14 -50 -32 8 -42 108 -18
225 -111 280 -221 16 -33 30 -55 30 -48 0 28 -58 128 -100 171 -25 25 -73 62
-108 82 l-63 35 48 18 c26 10 66 28 88 41 38 22 95 70 95 79 0 6 3 8 -59 -31z"/>
<path d="M485 408 c-4 -24 -18 -65 -31 -92 -50 -100 -110 -155 -221 -202 -32
-14 -44 -23 -28 -19 97 20 217 115 263 208 26 52 42 67 42 40 0 -29 64 -154
99 -193 l31 -35 -34 65 c-31 59 -59 138 -83 229 -12 50 -30 49 -38 -1z"/>
</g>
</svg>
